<svg width="600" height="400" viewBox="0 0 600 400" xmlns="http://www.w3.org/2000/svg">
  <defs>
    <linearGradient id="bg" x1="0%" y1="0%" x2="100%" y2="100%">
      <stop offset="0%" style="stop-color:#EFF6FF;stop-opacity:1" />
      <stop offset="100%" style="stop-color:#DBEAFE;stop-opacity:1" />
    </linearGradient>
  </defs>
  
  <!-- Background -->
  <rect width="600" height="400" fill="url(#bg)"/>
  
  <!-- Dashboard mockup -->
  <rect x="50" y="50" width="500" height="300" rx="10" fill="white" stroke="#E5E7EB" stroke-width="2"/>
  
  <!-- Header bar -->
  <rect x="50" y="50" width="500" height="60" rx="10" fill="#2563EB"/>
  <text x="80" y="85" font-family="Arial, sans-serif" font-size="18" font-weight="bold" fill="white">DocsFlow</text>
  
  <!-- Navigation -->
  <rect x="450" y="65" width="80" height="30" rx="5" fill="rgba(255,255,255,0.2)"/>
  <text x="485" y="83" font-family="Arial, sans-serif" font-size="12" fill="white" text-anchor="middle">תפריט</text>
  
  <!-- Main content area -->
  <rect x="80" y="140" width="200" height="150" rx="8" fill="#F3F4F6"/>
  <rect x="90" y="150" width="180" height="20" rx="4" fill="#2563EB"/>
  <text x="180" y="165" font-family="Arial, sans-serif" font-size="12" fill="white" text-anchor="middle">מסמכים חדשים</text>
  
  <rect x="90" y="180" width="180" height="15" rx="3" fill="#E5E7EB"/>
  <rect x="90" y="200" width="160" height="15" rx="3" fill="#E5E7EB"/>
  <rect x="90" y="220" width="140" height="15" rx="3" fill="#E5E7EB"/>
  
  <!-- Sidebar -->
  <rect x="320" y="140" width="200" height="150" rx="8" fill="#F9FAFB"/>
  <circle cx="360" cy="170" r="15" fill="#10B981"/>
  <text x="385" y="175" font-family="Arial, sans-serif" font-size="12" fill="#374151">חתימות ממתינות</text>
  
  <circle cx="360" cy="200" r="15" fill="#F59E0B"/>
  <text x="385" y="205" font-family="Arial, sans-serif" font-size="12" fill="#374151">טעונות סקירה</text>
  
  <circle cx="360" cy="230" r="15" fill="#EF4444"/>
  <text x="385" y="235" font-family="Arial, sans-serif" font-size="12" fill="#374151">דחופות</text>
  
  <!-- Bottom stats -->
  <rect x="80" y="310" width="440" height="30" rx="5" fill="rgba(37, 99, 235, 0.1)"/>
  <text x="300" y="330" font-family="Arial, sans-serif" font-size="14" fill="#2563EB" text-anchor="middle">500+ מסמכים | 70% חיסכון בזמן | 99.9% זמינות</text>
</svg>